<svg width="114" height="32" viewBox="0 0 114 32" fill="none" xmlns="http://www.w3.org/2000/svg">
<g clip-path="url(#clip0_64_47)">
<path d="M38.0861 5.76416H51.0837L52.9612 5.90716L54.4776 6.26465L55.8495 6.90813L56.7882 7.55162L57.5103 8.19511L58.0158 8.76709L58.5935 9.76807L58.9545 10.6975L59.2433 11.9845L59.3878 13.2715L59.46 15.9884V21.2793L59.3156 22.3518L59.0989 23.2813L59.1711 23.5673L60.3265 24.2822L61.8429 25.2832L61.9151 25.4977L60.6153 28.1432L59.6766 30.1451L59.3878 30.0021L58.2324 29.2156L57.1493 28.4292L56.8604 28.5006L55.7773 29.2156L54.8386 29.5731L53.1056 29.9306L51.9502 30.0736H35.4866L34.259 29.8591L33.3925 29.5731L32.526 29.1441L31.5873 28.4292L31.0096 27.8572L30.5764 27.1422L30.1431 25.9267L29.8543 24.5682L29.6376 22.5663L29.5654 20.5643V15.9169L29.6376 13.486L29.8543 11.77L30.2153 10.2686L30.6486 9.19608L31.0818 8.4096L31.7317 7.62312L32.4538 7.05113L33.6091 6.47914L34.8367 6.12165L36.0642 5.90716L38.0861 5.76416ZM39.0248 11.5555L38.2305 11.77L37.5806 12.199L37.1474 12.6995L36.8585 13.2715L36.6419 14.344V21.6368L36.9308 22.7808L37.4362 23.4958L38.2305 23.9248L39.3859 24.2822L40.469 24.3537H44.2239L50.0728 24.2822L50.6505 23.9248L50.4338 23.7103L48.5564 22.6378L45.0904 20.6358L43.8628 19.9208H43.7184L44.2239 18.9199L45.2348 17.2039L46.3179 15.3449L46.3901 15.2019L46.7512 15.3449L52.3113 19.0629L52.6723 19.2059V13.915L52.4557 13.1285L52.0224 12.4135L51.3726 11.8415L50.8671 11.627L50.5061 11.5555H39.0248Z" fill="#8B4094"/>
<path d="M15.3349 5.76416H16.5588L17.9987 5.83559L19.9426 6.1213L21.2385 6.47845L22.6064 7.1213L23.3983 7.76416L23.8303 8.33559L24.3342 9.40702L24.6222 10.4784L24.6942 10.9784L24.7662 13.4784L24.6942 13.5499H18.6467L18.5747 12.2642L18.2867 11.6927L17.6387 11.2642L17.1348 11.1927H7.99142L7.34347 11.3356L6.69552 11.907L6.40754 12.5499V13.9784L6.69552 14.6213L7.12748 14.9784L7.41546 15.0499L10.6552 15.1213L17.7107 15.1927L19.7266 15.2642L21.3825 15.4784L22.6064 15.8356L23.4703 16.3356L24.1183 16.9784L24.6942 17.9784L25.1262 19.2642L25.3422 20.7642V24.6927L25.1262 25.8356L24.7662 26.7642L24.3342 27.5499L23.6863 28.3356L22.8223 28.9784L21.8864 29.407L20.9505 29.6927L19.7986 29.907L17.9267 30.0499H7.19948L5.61559 29.9784L4.1037 29.7642L2.87979 29.407L2.15984 29.0499L1.4399 28.407L0.935932 27.7642L0.503964 26.907L0.215984 25.6927V22.1213H6.40754L6.47953 23.6213L6.8395 24.3356L7.19948 24.6213L7.63145 24.7642H17.5667L18.2147 24.6213L18.8626 24.2642L19.2226 23.8356L19.3666 23.407V22.1927L19.0786 21.4784L18.6467 20.9784L18.0707 20.7642L17.6387 20.6927L13.391 20.5499L7.34347 20.407L5.5436 20.3356L4.03171 20.1213L2.7358 19.6927L1.94386 19.1927L1.3679 18.6213L0.719948 17.6213L0.287979 16.4784L0.0719948 15.407L0 14.6213V12.6213L0.14399 11.0499L0.431969 9.69273L0.935932 8.54987L1.51189 7.76416L2.01585 7.26416L3.09578 6.6213L4.24769 6.19273L5.83158 5.90702L6.69552 5.83559L15.3349 5.76416Z" fill="#8B4094"/>
<path d="M66.811 -0.0449219H75.0226L76.8954 0.169843L78.6242 0.527785L80.3529 1.0289L82.4418 1.88796L83.9545 2.67544L85.3231 3.5345L86.3315 4.25038L87.2679 4.96626L88.2043 5.75374L88.9246 6.39803L89.5009 6.89915L91.2296 8.61727L91.7339 9.18998L92.4542 9.97745L93.1025 10.7649L93.8948 11.6956L94.6872 12.6978L95.4075 13.6285L96.2718 14.7739L99.0811 18.6396L99.9454 19.8566L100.882 21.1452L101.89 22.5054L102.827 23.7224L103.619 24.7247L104.411 25.6553L105.06 26.4428L105.636 27.0155L106.14 27.5882L106.716 28.1609L107.293 28.662L108.229 29.4495L109.165 30.0938L110.246 30.7381L111.326 31.2392L112.767 31.6687L114.136 31.8835V31.9551H106.14L104.772 31.7403L103.619 31.3824L102.467 30.8813L101.458 30.3085L100.45 29.5927L99.5133 28.8052L98.7929 28.1609L97.3523 26.7291L96.8481 26.1564L95.9837 25.1542L95.1914 24.1519L94.1829 22.8634L93.1745 21.5032L92.2381 20.2146L91.3737 18.9976L90.4373 17.709L89.5729 16.492L87.5561 13.7716L86.5476 12.483L85.6112 11.3376L84.8189 10.407L84.1706 9.61951L83.0181 8.40251L82.0096 7.32868L81.2893 6.68438L80.2809 5.75374L79.2725 4.96626L78.0479 4.03562L76.9675 3.31973L75.5989 2.53226L74.4464 1.95955L73.1498 1.38685L71.2049 0.74255L69.6923 0.384608L68.3957 0.169843L66.811 0.0266665V-0.0449219Z" fill="#8C4094"/>
<path d="M66.2121 5.76416L72.4958 5.8358L72.568 24.3187H88.53L88.6023 24.3904V30.0499H66.1399V5.8358L66.2121 5.76416Z" fill="#8B4094"/>
</g>
<defs>
<clipPath id="clip0_64_47">
<rect width="114" height="32" fill="white"/>
</clipPath>
</defs>
</svg>
