<svg width="1306" height="610" viewBox="0 0 1306 610" fill="none" xmlns="http://www.w3.org/2000/svg">
<path d="M418.763 198H554.165L573.723 199.501L589.52 203.255L603.812 210.012L613.592 216.768L621.114 223.525L626.379 229.531L632.397 240.041L636.158 249.801L639.167 263.314L640.672 276.827L641.424 305.355V360.909L639.92 372.17L637.663 381.93L638.415 384.933L650.451 392.44L666.248 402.95L667 405.202L653.46 432.979L643.681 454L640.672 452.499L628.636 444.24L617.353 435.982L614.344 436.733L603.06 444.24L593.281 447.994L575.228 451.748L563.192 453.249H391.683L378.895 450.997L369.868 447.994L360.842 443.49L351.062 435.982L345.045 429.977L340.531 422.469L336.018 409.707L333.009 395.443L330.752 374.422L330 353.402V304.604L330.752 279.079L333.009 261.062L336.77 245.296L341.283 234.035L345.797 225.777L352.567 217.519L360.089 211.513L372.125 205.507L384.913 201.754L397.701 199.501L418.763 198ZM428.542 258.809L420.268 261.062L413.498 265.566L408.984 270.821L405.975 276.827L403.719 288.088V364.663L406.728 376.674L411.993 384.182L420.268 388.686L432.304 392.44L443.587 393.191H482.703L543.634 392.44L549.652 388.686L547.395 386.434L527.837 375.173L491.73 354.152L478.942 346.645H477.437L482.703 336.135L493.234 318.117L504.518 298.598L505.27 297.097L509.031 298.598L566.953 337.636L570.714 339.138V283.584L568.458 275.326L563.944 267.818L557.174 261.812L551.908 259.56L548.147 258.809H428.542Z" fill="#8B4094"/>
<path d="M181.75 198H194.5L209.5 198.75L229.75 201.75L243.25 205.5L257.5 212.25L265.75 219L270.25 225L275.5 236.25L278.5 247.5L279.25 252.75L280 279L279.25 279.75H216.25L215.5 266.25L212.5 260.25L205.75 255.75L200.5 255H105.25L98.5 256.5L91.75 262.5L88.75 269.25V284.25L91.75 291L96.25 294.75L99.25 295.5L133 296.25L206.5 297L227.5 297.75L244.75 300L257.5 303.75L266.5 309L273.25 315.75L279.25 326.25L283.75 339.75L286 355.5V396.75L283.75 408.75L280 418.5L275.5 426.75L268.75 435L259.75 441.75L250 446.25L240.25 449.25L228.25 451.5L208.75 453H97L80.5 452.25L64.75 450L52 446.25L44.5 442.5L37 435.75L31.75 429L27.25 420L24.25 407.25V369.75H88.75L89.5 385.5L93.25 393L97 396L101.5 397.5H205L211.75 396L218.5 392.25L222.25 387.75L223.75 383.25V370.5L220.75 363L216.25 357.75L210.25 355.5L205.75 354.75L161.5 353.25L98.5 351.75L79.75 351L64 348.75L50.5 344.25L42.25 339L36.25 333L29.5 322.5L25 310.5L22.75 299.25L22 291V270L23.5 253.5L26.5 239.25L31.75 227.25L37.75 219L43 213.75L54.25 207L66.25 202.5L82.75 199.5L91.75 198.75L181.75 198Z" fill="#8B4094"/>
<path d="M718 137H803.543L823.053 139.255L841.062 143.013L859.072 148.275L880.833 157.295L896.591 165.564L910.848 174.584L921.353 182.101L931.108 189.617L940.863 197.886L948.367 204.651L954.37 209.913L972.379 227.953L977.632 233.966L985.135 242.235L991.889 250.503L1000.14 260.275L1008.4 270.799L1015.9 280.57L1024.91 292.597L1054.17 333.188L1063.18 345.966L1072.93 359.497L1083.44 373.779L1093.19 386.557L1101.44 397.081L1109.7 406.852L1116.45 415.121L1122.46 421.134L1127.71 427.148L1133.71 433.161L1139.71 438.423L1149.47 446.691L1159.22 453.456L1170.48 460.221L1181.74 465.483L1196.74 469.993L1211 472.248V473H1127.71L1113.45 470.745L1101.44 466.987L1089.44 461.725L1078.93 455.711L1068.43 448.195L1058.67 439.926L1051.17 433.161L1036.16 418.128L1030.91 412.114L1021.9 401.591L1013.65 391.067L1003.14 377.537L992.639 363.255L982.884 349.725L973.88 336.946L964.125 323.416L955.12 310.638L934.11 282.074L923.604 268.544L913.849 256.517L905.595 246.745L898.842 238.477L886.836 225.698L876.33 214.423L868.826 207.658L858.321 197.886L847.816 189.617L835.059 179.846L823.804 172.329L809.546 164.06L797.54 158.047L784.033 152.034L763.773 145.268L748.015 141.51L734.508 139.255L718 137.752V137Z" fill="#8C4094"/>
<path d="M711.752 198L777.212 198.752L777.965 392.823H944.248L945 393.575V453H711V198.752L711.752 198Z" fill="#8B4094"/>
</svg>
